<svg xmlns="http://www.w3.org/2000/svg" width="760" height="460" viewBox="0 0 760 460" font-family="Helvetica,Arial,sans-serif">
<rect x="0" y="0" width="760" height="460" fill="#ffffff"/>
<text x="380.0" y="26" text-anchor="middle" font-size="16" font-weight="700" fill="#1f2937">durability window vs 分区数 P（sync_wal=true，对数轴）</text>
<line x1="78" y1="396.0" x2="732" y2="396.0" stroke="#e5e7eb" stroke-width="1"/>
<text x="70" y="400.0" text-anchor="end" font-size="11" fill="#6b7280">1</text>
<line x1="78" y1="311.0" x2="732" y2="311.0" stroke="#e5e7eb" stroke-width="1"/>
<text x="70" y="315.0" text-anchor="end" font-size="11" fill="#6b7280">1e1</text>
<line x1="78" y1="226.0" x2="732" y2="226.0" stroke="#e5e7eb" stroke-width="1"/>
<text x="70" y="230.0" text-anchor="end" font-size="11" fill="#6b7280">1e2</text>
<line x1="78" y1="141.0" x2="732" y2="141.0" stroke="#e5e7eb" stroke-width="1"/>
<text x="70" y="145.0" text-anchor="end" font-size="11" fill="#6b7280">1e3</text>
<line x1="78" y1="56.0" x2="732" y2="56.0" stroke="#e5e7eb" stroke-width="1"/>
<text x="70" y="60.0" text-anchor="end" font-size="11" fill="#6b7280">1e4</text>
<text x="18" y="226.0" text-anchor="middle" font-size="12" fill="#374151" transform="rotate(-90 18 226.0)">durability window p99 (ms)</text>
<line x1="107.7" y1="396" x2="107.7" y2="401" stroke="#9ca3af" stroke-width="1"/>
<text x="107.7" y="416" text-anchor="middle" font-size="11" fill="#6b7280">1</text>
<line x1="249.3" y1="396" x2="249.3" y2="401" stroke="#9ca3af" stroke-width="1"/>
<text x="249.3" y="416" text-anchor="middle" font-size="11" fill="#6b7280">16</text>
<line x1="702.3" y1="396" x2="702.3" y2="401" stroke="#9ca3af" stroke-width="1"/>
<text x="702.3" y="416" text-anchor="middle" font-size="11" fill="#6b7280">64</text>
<text x="405.0" y="444" text-anchor="middle" font-size="12" fill="#374151">分区数 P</text>
<line x1="78" y1="56" x2="78" y2="396" stroke="#374151" stroke-width="1.5"/>
<line x1="78" y1="396" x2="732" y2="396" stroke="#374151" stroke-width="1.5"/>
<line x1="78" y1="336.6" x2="732" y2="336.6" stroke="#059669" stroke-width="1.6" stroke-dasharray="6 4"/>
<text x="728" y="332.6" text-anchor="end" font-size="10.5" fill="#059669" font-weight="600">PASS 阈值(≤5ms)</text>
<polyline points="107.7,255.9 249.3,211.1 702.3,197.9" fill="none" stroke="#dc2626" stroke-width="2.2" />
<circle cx="107.7" cy="255.9" r="4.5" fill="#dc2626"/>
<circle cx="249.3" cy="211.1" r="4.5" fill="#dc2626"/>
<circle cx="702.3" cy="197.9" r="4.5" fill="#dc2626"/>
<polyline points="107.7,247.4 249.3,160.9 702.3,117.3" fill="none" stroke="#2563eb" stroke-width="2.2" />
<rect x="103.2" y="242.9" width="9.0" height="9.0" fill="#2563eb"/>
<rect x="244.8" y="156.4" width="9.0" height="9.0" fill="#2563eb"/>
<rect x="697.8" y="112.8" width="9.0" height="9.0" fill="#2563eb"/>
<line x1="90" y1="70" x2="112" y2="70" stroke="#dc2626" stroke-width="2.4" />
<circle cx="101" cy="70" r="3.5" fill="#dc2626"/>
<text x="118" y="74" font-size="11.5" fill="#1f2937">模式A independent_fsync</text>
<line x1="90" y1="88" x2="112" y2="88" stroke="#2563eb" stroke-width="2.4" />
<circle cx="101" cy="88" r="3.5" fill="#2563eb"/>
<text x="118" y="92" font-size="11.5" fill="#1f2937">模式B batched_fsync</text>
<line x1="90" y1="106" x2="112" y2="106" stroke="#059669" stroke-width="2" stroke-dasharray="6 3"/>
<text x="118" y="110" font-size="11.5" fill="#059669">PASS 阈值(≤5ms)</text>
</svg>