<svg xmlns="http://www.w3.org/2000/svg" width="760" height="460" viewBox="0 0 760 460" font-family="Helvetica,Arial,sans-serif">
<rect x="0" y="0" width="760" height="460" fill="#ffffff"/>
<text x="380.0" y="26" text-anchor="middle" font-size="16" font-weight="700" fill="#1f2937">range lookup 延迟 vs 分区数 P</text>
<line x1="78" y1="396.0" x2="732" y2="396.0" stroke="#e5e7eb" stroke-width="1"/>
<text x="70" y="400.0" text-anchor="end" font-size="11" fill="#6b7280">0</text>
<line x1="78" y1="333.5" x2="732" y2="333.5" stroke="#e5e7eb" stroke-width="1"/>
<text x="70" y="337.5" text-anchor="end" font-size="11" fill="#6b7280">20</text>
<line x1="78" y1="271.1" x2="732" y2="271.1" stroke="#e5e7eb" stroke-width="1"/>
<text x="70" y="275.1" text-anchor="end" font-size="11" fill="#6b7280">40</text>
<line x1="78" y1="208.6" x2="732" y2="208.6" stroke="#e5e7eb" stroke-width="1"/>
<text x="70" y="212.6" text-anchor="end" font-size="11" fill="#6b7280">60</text>
<line x1="78" y1="146.1" x2="732" y2="146.1" stroke="#e5e7eb" stroke-width="1"/>
<text x="70" y="150.1" text-anchor="end" font-size="11" fill="#6b7280">80</text>
<line x1="78" y1="83.7" x2="732" y2="83.7" stroke="#e5e7eb" stroke-width="1"/>
<text x="70" y="87.7" text-anchor="end" font-size="11" fill="#6b7280">100</text>
<text x="18" y="226.0" text-anchor="middle" font-size="12" fill="#374151" transform="rotate(-90 18 226.0)">延迟 (ns)</text>
<line x1="107.7" y1="396" x2="107.7" y2="401" stroke="#9ca3af" stroke-width="1"/>
<text x="107.7" y="416" text-anchor="middle" font-size="11" fill="#6b7280">64</text>
<line x1="305.9" y1="396" x2="305.9" y2="401" stroke="#9ca3af" stroke-width="1"/>
<text x="305.9" y="416" text-anchor="middle" font-size="11" fill="#6b7280">128</text>
<line x1="702.3" y1="396" x2="702.3" y2="401" stroke="#9ca3af" stroke-width="1"/>
<text x="702.3" y="416" text-anchor="middle" font-size="11" fill="#6b7280">256</text>
<text x="405.0" y="444" text-anchor="middle" font-size="12" fill="#374151">分区数 P</text>
<line x1="78" y1="56" x2="78" y2="396" stroke="#374151" stroke-width="1.5"/>
<line x1="78" y1="396" x2="732" y2="396" stroke="#374151" stroke-width="1.5"/>
<line x1="78" y1="83.7" x2="732" y2="83.7" stroke="#059669" stroke-width="1.6" stroke-dasharray="6 4"/>
<text x="728" y="79.7" text-anchor="end" font-size="10.5" fill="#059669" font-weight="600">达标阈值 p99≤100ns</text>
<polyline points="107.7,314.4 305.9,294.0 702.3,280.1" fill="none" stroke="#1d4ed8" stroke-width="2.2" />
<circle cx="107.7" cy="314.4" r="4.5" fill="#1d4ed8"/>
<circle cx="305.9" cy="294.0" r="4.5" fill="#1d4ed8"/>
<circle cx="702.3" cy="280.1" r="4.5" fill="#1d4ed8"/>
<polyline points="107.7,189.9 305.9,143.0 702.3,118.0" fill="none" stroke="#1d4ed8" stroke-width="2.2" stroke-dasharray="7 4"/>
<circle cx="107.7" cy="189.9" r="4.5" fill="#1d4ed8"/>
<circle cx="305.9" cy="143.0" r="4.5" fill="#1d4ed8"/>
<circle cx="702.3" cy="118.0" r="4.5" fill="#1d4ed8"/>
<polyline points="107.7,309.7 305.9,298.3 702.3,291.9" fill="none" stroke="#dc2626" stroke-width="2.2" />
<rect x="103.2" y="305.2" width="9.0" height="9.0" fill="#dc2626"/>
<rect x="301.4" y="293.8" width="9.0" height="9.0" fill="#dc2626"/>
<rect x="697.8" y="287.4" width="9.0" height="9.0" fill="#dc2626"/>
<polyline points="107.7,152.4 305.9,124.3 702.3,114.9" fill="none" stroke="#dc2626" stroke-width="2.2" stroke-dasharray="7 4"/>
<rect x="103.2" y="147.9" width="9.0" height="9.0" fill="#dc2626"/>
<rect x="301.4" y="119.8" width="9.0" height="9.0" fill="#dc2626"/>
<rect x="697.8" y="110.4" width="9.0" height="9.0" fill="#dc2626"/>
<line x1="90" y1="70" x2="112" y2="70" stroke="#1d4ed8" stroke-width="2.4" />
<circle cx="101" cy="70" r="3.5" fill="#1d4ed8"/>
<text x="118" y="74" font-size="11.5" fill="#1f2937">binary_search mean</text>
<line x1="90" y1="88" x2="112" y2="88" stroke="#1d4ed8" stroke-width="2.4" stroke-dasharray="6 3"/>
<circle cx="101" cy="88" r="3.5" fill="#1d4ed8"/>
<text x="118" y="92" font-size="11.5" fill="#1f2937">binary_search p99</text>
<line x1="90" y1="106" x2="112" y2="106" stroke="#dc2626" stroke-width="2.4" />
<circle cx="101" cy="106" r="3.5" fill="#dc2626"/>
<text x="118" y="110" font-size="11.5" fill="#1f2937">small_btree mean</text>
<line x1="90" y1="124" x2="112" y2="124" stroke="#dc2626" stroke-width="2.4" stroke-dasharray="6 3"/>
<circle cx="101" cy="124" r="3.5" fill="#dc2626"/>
<text x="118" y="128" font-size="11.5" fill="#1f2937">small_btree p99</text>
<line x1="90" y1="142" x2="112" y2="142" stroke="#059669" stroke-width="2" stroke-dasharray="6 3"/>
<text x="118" y="146" font-size="11.5" fill="#059669">达标阈值 p99≤100ns</text>
</svg>